Jump_normalized_Motion_pl02
version=1
nRows=10
nColumns=43
inDegrees=yes
endheader
time		pelvis_tilt		pelvis_list		pelvis_rotation		pelvis_tx		pelvis_ty		pelvis_tz		hip_flexion_r		hip_adduction_r		hip_rotation_r		knee_angle_r		ankle_angle_r		subtalar_angle_r		mtp_angle_r		hip_flexion_l		hip_adduction_l		hip_rotation_l		knee_angle_l		ankle_angle_l		subtalar_angle_l		mtp_angle_l		lumbar_extension		lumbar_bending		lumbar_rotation		neck_flexion		neck_lateral_bending		neck_rotation		arm_flex_r		arm_add_r		arm_rot_r		elbow_flex_r		pro_sup_r		wrist_flex_r		wrist_dev_r		hand_finger_flex_r		arm_flex_l		arm_add_l		arm_rot_l		elbow_flex_l		pro_sup_l		wrist_flex_l		wrist_dev_l		hand_finger_flex_l		
0.325000		3.159261		-24.940651		88.218332		0.012073		1.701565		1.858656		94.242121		-11.882374		7.312537		-135.500733		44.827624		7.686660		-27.839471		94.007328		-12.146656		5.195491		-136.765586		46.039813		-7.300358		-33.972188		-38.549692		-0.353923		4.012640		43.925894		-0.015108		5.319820		61.624790		-32.057012		10.192974		87.676372		81.329457		-2.488117		-11.205819		90.000210		70.811828		-32.612850		30.674478		83.123254		77.849519		-46.422616		2.467516		79.469791		
0.327475		3.152432		-25.074526		88.232995		0.011924		1.701330		1.857502		94.226905		-11.916954		7.365976		-135.523521		44.887100		7.724866		-27.840432		93.986615		-12.102290		5.182045		-136.787590		46.051231		-7.374438		-34.006436		-38.423855		-0.333114		4.010103		43.862318		0.013248		5.344375		63.351184		-31.850678		10.507032		87.591367		82.668871		0.648012		-10.558240		90.000210		72.484406		-32.268444		31.437827		83.226203		77.847083		-46.530755		2.605128		79.730253		
0.329949		3.145901		-25.362826		88.240787		0.011791		1.700823		1.856381		94.381107		-11.940438		7.414609		-135.545630		44.914754		7.744107		-27.837000		94.137816		-12.067718		5.170360		-136.804187		46.063867		-7.399367		-34.011654		-38.109743		-0.310992		4.055472		43.744406		0.007365		5.349176		64.982134		-31.850789		11.337799		87.706011		83.003780		1.362586		-10.349289		90.000210		74.068948		-31.884590		32.131569		83.317788		77.977835		-46.338362		2.667790		79.785392		
0.332424		3.148988		-25.562686		88.267300		0.011624		1.700569		1.855135		94.402305		-11.987300		7.447001		-135.553406		44.981622		7.770644		-27.825733		94.178838		-12.016021		5.156511		-136.810849		46.054421		-7.472850		-34.019281		-37.898053		-0.284077		4.065896		43.636273		0.073912		5.343590		66.675208		-31.699402		12.087798		87.717491		83.158267		2.283900		-10.044480		90.000210		75.687647		-31.500529		32.828278		83.381881		78.030325		-46.203118		2.771887		79.837183		
0.334899		3.140106		-25.527013		88.332605		0.011447		1.700919		1.853631		94.124101		-12.084573		7.467824		-135.560333		45.055957		7.844439		-27.794430		93.918125		-11.948346		5.083967		-136.797593		45.990675		-7.654319		-34.041601		-37.967028		-0.252636		3.963298		43.603147		0.133712		5.403855		68.485334		-31.164124		12.606338		87.404471		82.510947		3.968919		-9.762994		90.000210		77.356538		-31.157380		33.515329		83.441442		77.735480		-46.399420		2.977475		79.921253		
0.337374		3.121931		-25.859516		88.344848		0.011309		1.700616		1.852246		94.240853		-12.115705		7.504518		-135.534269		45.163016		7.842904		-27.770156		94.061497		-11.895782		5.042934		-136.780502		46.023014		-7.703229		-34.041918		-37.625193		-0.252311		3.990048		43.616676		0.217855		5.382044		70.108199		-30.895956		13.345788		87.438344		82.147112		4.041457		-9.858346		90.000210		78.835628		-30.724000		34.067385		83.564516		77.740785		-46.309506		3.011892		79.937990		
0.339848		3.080563		-25.892429		88.397674		0.011140		1.700887		1.850648		94.033534		-12.212001		7.577117		-135.531387		45.209176		7.899019		-27.704948		93.856784		-11.812876		4.943634		-136.755721		45.908474		-7.909486		-34.058100		-37.596073		-0.252323		3.803888		43.499465		0.383184		5.492782		71.892025		-30.412287		14.697774		87.051310		79.096571		2.112387		-10.736103		90.000210		80.462552		-30.496322		34.772002		83.674604		77.247196		-46.543953		3.141618		79.869805		
0.342323		3.076581		-26.146469		88.438046		0.010972		1.700785		1.849109		94.049153		-12.277902		7.598582		-135.513059		45.269745		7.955915		-27.609987		93.904110		-11.748251		4.902833		-136.736135		45.853021		-8.014412		-34.058127		-37.319217		-0.218374		3.761023		43.426937		0.428833		5.502688		73.598128		-30.165222		16.361430		87.025372		76.130034		-1.922394		-11.718687		90.000210		81.966385		-30.158627		35.399459		83.768223		76.883699		-46.664846		3.114128		79.752218		
0.344798		3.069417		-26.354870		88.473765		0.010799		1.700950		1.847431		93.966547		-12.342944		7.596195		-135.458435		45.367529		7.942517		-27.491282		93.862042		-11.689787		4.833520		-136.691978		45.833219		-8.156540		-34.041665		-37.126630		-0.206303		3.736801		43.475287		0.534442		5.549022		75.333801		-29.916927		18.057689		87.138395		73.064815		-6.801870		-12.545644		90.000210		83.436129		-29.760783		35.890427		83.887628		76.550163		-46.662593		3.103796		79.557085		
0.347273		3.075141		-26.600918		88.510791		0.010679		1.701040		1.845735		93.931344		-12.401131		7.579506		-135.419672		45.446036		7.969594		-27.366154		93.863332		-11.634378		4.799185		-136.649852		45.776700		-8.273728		-34.020121		-36.873123		-0.181061		3.742277		43.461372		0.610891		5.548309		77.087298		-29.568053		19.733435		87.204500		70.091237		-12.079842		-13.668206		90.000210		84.870049		-29.350144		36.367670		83.970724		76.243726		-46.624392		3.111190		79.272216		
